<svg width="50" height="50" viewBox="0 0 50 50" fill="none" xmlns="http://www.w3.org/2000/svg">
<path d="M36.9043 10.3418L48.8965 22.334C49.5996 23.0371 50 24.0039 50 25C50 25.9961 49.5996 26.9629 48.8965 27.666L36.9043 39.6582C36.2793 40.2832 35.4395 40.625 34.5605 40.625C32.7344 40.625 31.25 39.1406 31.25 37.3145V31.25H18.75C17.0215 31.25 15.625 29.8535 15.625 28.125V21.875C15.625 20.1465 17.0215 18.75 18.75 18.75H31.25V12.6855C31.25 10.8594 32.7344 9.375 34.5605 9.375C35.4395 9.375 36.2793 9.72656 36.9043 10.3418ZM15.625 9.375H9.375C7.64648 9.375 6.25 10.7715 6.25 12.5V37.5C6.25 39.2285 7.64648 40.625 9.375 40.625H15.625C17.3535 40.625 18.75 42.0215 18.75 43.75C18.75 45.4785 17.3535 46.875 15.625 46.875H9.375C4.19922 46.875 0 42.6758 0 37.5V12.5C0 7.32422 4.19922 3.125 9.375 3.125H15.625C17.3535 3.125 18.75 4.52148 18.75 6.25C18.75 7.97852 17.3535 9.375 15.625 9.375Z" fill="#1D3150"/>
</svg>
